<?xml version="1.0" encoding="utf-8"?>
<!-- Generator: Adobe Illustrator 21.1.0, SVG Export Plug-In . SVG Version: 6.00 Build 0)  -->
<svg version="1.1" id="Layer_1" xmlns="http://www.w3.org/2000/svg" xmlns:xlink="http://www.w3.org/1999/xlink" x="0px" y="0px"
	 viewBox="0 0 512 512" style="enable-background:new 0 0 512 512;" xml:space="preserve">
<g>
	<path d="M420.3,361.1l-37.8,37.8L278.7,294.8c-22.3,15.1-48.8,23-76.3,23c-36.8,0-71.1-14.4-96.9-40.2
		c-26.1-25.8-40.2-60.1-40.2-96.9s14.1-71.1,40.2-96.9c53.6-53.6,140.5-53.6,193.8,0c25.8,25.8,40.2,60.1,40.2,96.9
		c0,27.5-8.2,53.9-23,76.3L420.3,361.1z M133.7,249.5c37.8,37.8,99.3,37.8,137.1,0c18.2-18.2,28.5-42.6,28.5-68.7
		c0-25.8-10-50.2-28.5-68.7c-18.2-18.2-42.6-28.5-68.7-28.5c-25.8,0-50.2,10-68.7,28.5c-18.2,18.2-28.5,42.6-28.5,68.7
		C105.5,206.9,115.5,230.9,133.7,249.5z"/>
</g>
</svg>
