<svg id="Layer_1" data-name="Layer 1" xmlns="http://www.w3.org/2000/svg" viewBox="0 0 710.56 974.75"><defs><style>.cls-1{fill:red;}</style></defs><title>Artboard 1</title><path class="cls-1" d="M665.71,829.65c-1.15-8.31-6-14.46-10.69-20.89-18.34-25-36.26-50.24-54.77-75.08-28.15-37.76-56.85-75.12-84.91-112.95-8-10.82-16.13-20.86-29.39-25.47-10.59-3.68-21.55-4.76-32.57-5.81-5.69-.54-11.23.84-16.86,1.08-19.42.81-38.84,1.87-58.25,2.91q-28.83,1.54-57.66,3.22c-6.12.35-12.26.54-18.32,1.36-5,.67-5.33.67-4.6-4.18,2-13.08,4.33-26.11,5.81-39.25,2.94-26,5.95-52,7.89-78,1.72-23,2.62-46.11,2.83-69.19.28-29.92.65-59.84-1.38-89.76-1.13-16.71-1.86-33.46-2.88-50.19-1.43-23.33-4.16-46.54-5.26-69.89-.81-17.28-7.23-32.56-18.28-45.72-8.88-10.57-19.66-19.32-29-29.49-12.73-13.83-26.08-27.08-38.93-40.81-13.73-14.68-27.09-29.7-40.79-44.4-4.88-5.24-10.39-4.21-13.41,2.2-3.67,7.78-4.1,16.26-4.55,24.62-1.19,22.1.74,44.17,1,66.26.14,11-1.09,21.87-1.12,32.84,0,15.29-.72,30.55-1.8,45.82-1.44,20.31-3.07,40.58-5,60.85s-4.43,40.47-7.4,60.58q-5.46,37-13,73.67c-4.67,22.55-10,45-16.45,67.11C109.31,493.78,102,516.25,92.54,538c-6.92,15.93-14.77,31.38-25.87,44.9-8.15,9.94-15,20.3-12.9,33.3-1.37,15.75,4.91,27.48,16,36.92,10.54,9,23.18,12.94,36.78,14,11.79.89,23.5-.75,35.25-1.35,12.6-.65,25.17-1.63,37.74-2.48,19.22-1.29,38.4-3.1,57.6-4.6,2.13-.17,3.63.2,3.05,3.42-3.11,17.4-5.63,34.91-8.85,52.3-4.67,25.24-9.52,50.44-15.57,75.4-4.26,17.54-8.55,35.06-13.6,52.4-3.18,10.92-4.08,22.29-.9,33.37,4.46,15.53,18.13,24.8,35.73,25.55,12.88.55,25.4-1.82,38-3.52,23.14-3.11,46.32-5.91,69.5-8.75,15.13-1.86,30.25-3.89,45.43-5.24,15-1.34,30-3,45-4.56q28.44-2.94,56.92-5.49c10.9-1,21.86-1.27,32.76-2.29,25.94-2.43,51.94-4.08,77.93-5.84,9.09-.62,18.18-1.23,27.25-2a53.13,53.13,0,0,0,21.72-6.24C660.66,851.92,667.55,843,665.71,829.65ZM216.82,603.37q-27.76,2-55.52,4c-13.55,1-27.1,2.06-40.65,3-1.36.1-3.22.75-4.06-.67-.72-1.21.56-2.47,1.25-3.57,16.07-25.62,26.81-53.46,35.19-82.42a572.36,572.36,0,0,0,15.33-71c2.6-16.66,4.25-33.49,5.55-50.35,1.5-19.37,2-38.76,3-58.14s.93-38.61.51-57.87c-.47-21.91-1.31-43.82-2.09-65.73-.63-17.57-2-35.13-2.87-52.71-.85-16.56-1.71-33.14-3-49.68-1.34-17.86-3.12-35.68-2.88-53.62a100.55,100.55,0,0,1,1.94-18.23c.36-1.82.48-4,2.21-4.68,2.32-1,3.58,1.4,4.81,2.74,8.76,9.54,17.52,19.08,26,28.84q23.87,27.43,47.44,55.12c8.63,10.1,17.27,20.2,25.51,30.6,7.81,9.85,12.61,25.22,11.9,41.59-2.29,13.33-.92,30.5-2.71,47.52-1,9.4-.58,18.93-1.23,28.38-1.11,16.16-2.57,32.29-3.84,48.44-.74,9.41-1.25,18.84-2.09,28.24-1.47,16.49-3.11,33-4.7,49.45q-1.1,11.36-2.28,22.71c-1.38,13.45-2.73,26.91-4.18,40.35-1.17,10.86-2.45,21.71-3.71,32.57-1.61,13.93-3.16,27.87-4.87,41.79-2.3,18.69-4.8,37.36-7,56.06-.41,3.45-1.9,5-5.24,5.22C235.33,602,226.08,602.7,216.82,603.37ZM615.41,836.09c-19,3-38,5.71-57,8.44-23.28,3.35-46.54,6.77-69.85,9.91-28.08,3.78-56.18,7.51-84.31,10.83-25,3-50.07,5.29-75.1,8-15.81,1.7-31.61,3.36-47.49,4.34-12.73.78-25.35,3-38.16,2.95a34.6,34.6,0,0,1-12.94-3.07c-4.77-2-7.72-7.95-6.86-13.69a62,62,0,0,1,3.7-14.35c10.9-26.72,20.1-54.06,28.86-81.52,7.3-22.89,14-46,19.65-69.39,3.18-13.14,6.45-26.26,9.32-39.46.7-3.22,2.11-4.48,5.11-4.74,10.73-.9,21.46-1.86,32.19-2.8q27.22-2.38,54.45-4.77c15.7-1.39,31.42-2.55,47.08-4.31a321.91,321.91,0,0,1,36.29-1.94c5.63,0,9.75,1.73,13.58,6.36q45.64,55.25,91.86,110c21.12,25,42.74,49.53,64.13,74.28a7.44,7.44,0,0,1,.6,1C625.75,835.56,620.38,835.3,615.41,836.09Z"/></svg>